Coordinates
version=1
nRows=10
nColumns=63
inDegrees=yes

Units are S.I. units (second, meters, Newtons, ...)
If the header above contains a line with 'inDegrees', this indicates whether rotational values are in degrees (yes) or radians (no).

endheader
time	pelvis_tilt	pelvis_list	pelvis_rotation	pelvis_tx	pelvis_ty	pelvis_tz	hip_flexion_r	hip_adduction_r	hip_rotation_r	knee_angle_r	knee_angle_r_beta	ankle_angle_r	subtalar_angle_r	mtp_angle_r	hip_flexion_l	hip_adduction_l	hip_rotation_l	knee_angle_l	knee_angle_l_beta	ankle_angle_l	subtalar_angle_l	mtp_angle_l	L5_S1_Flex_Ext	L5_S1_Lat_Bending	L5_S1_axial_rotation	L4_L5_Flex_Ext	L4_L5_Lat_Bending	L4_L5_axial_rotation	L3_L4_Flex_Ext	L3_L4_Lat_Bending	L3_L4_axial_rotation	L2_L3_Flex_Ext	L2_L3_Lat_Bending	L2_L3_axial_rotation	L1_L2_Flex_Ext	L1_L2_Lat_Bending	L1_L2_axial_rotation	L1_T12_Flex_Ext	L1_T12_Lat_Bending	L1_T12_axial_rotation	Abs_r3	Abs_r2	Abs_r1	Abs_t1	Abs_t2	neck_flexion	neck_bending	neck_rotation	arm_flex_r	arm_add_r	arm_rot_r	elbow_flex_r	pro_sup_r	wrist_flex_r	wrist_dev_r	arm_flex_l	arm_add_l	arm_rot_l	elbow_flex_l	pro_sup_l	wrist_flex_l	wrist_dev_l
      2.58333333	     -8.19692085	     -7.63124167	     84.92660707	      0.21489686	      0.89178281	      0.59963398	      3.51216827	     -9.25480483	    -12.07098976	      7.33085259	      0.12794751	     20.54423201	     16.38255617	      0.00000000	      4.68838799	      5.50289553	      0.44601511	      9.06919079	      0.15828724	     10.05304196	     -4.11940762	      0.00000000	     -0.18722622	     -1.13063976	      0.65373086	     -0.34769781	     -1.50375088	      0.69458904	     -0.30759396	     -2.74903752	      0.69458904	     -0.21398085	     -2.74903752	      0.57201450	     -0.17385827	     -2.30560060	      0.53115632	     -0.10698106	     -1.75136099	      0.49029814	     -1.33733817	    -12.79002311	      3.63585492	      0.00000000	      0.00000000	     12.00474142	      5.92145607	     -3.65806436	     99.45958529	   -117.14768091	     95.82990679	     18.28605487	      6.71414051	    -16.78196809	     12.68373117	   -138.42576270	    -78.14976389	    -11.75248616	      9.88596306	     51.36858967	     -9.46006253	     -2.78618847
      2.60000000	     -8.10404999	     -7.60792394	     84.54218423	      0.21541831	      0.89227569	      0.59980794	      3.56678416	     -9.12321601	    -11.61551733	      7.20608181	      0.12576985	     20.37155984	     16.35264513	      0.00000000	      4.70298499	      5.38877992	      0.27648840	      9.11028031	      0.15900439	     10.05652186	     -4.42800049	      0.00000000	     -0.17561894	     -1.13027961	      0.75892095	     -0.32614193	     -1.50327188	      0.80635351	     -0.28852436	     -2.74816184	      0.80635351	     -0.20071489	     -2.74816184	      0.66405583	     -0.16307975	     -2.30486618	      0.61662327	     -0.10034866	     -1.75080311	      0.56919071	     -1.25442853	    -12.78594898	      4.22089066	      0.00000000	      0.00000000	     12.56911837	      5.52270925	     -5.13706951	     99.42884452	   -116.56436611	     96.90466329	     17.91734250	      7.13775411	    -16.28978335	     12.28329820	   -137.51580682	    -77.77260131	    -13.01848437	      9.67359118	     50.56545514	     -9.70242297	     -3.62570744
      2.61666667	     -8.01948988	     -7.66267618	     84.47637004	      0.21533909	      0.89269478	      0.59982747	      3.64967932	     -9.04077958	    -11.48861672	      7.14253610	      0.12466077	     20.27716170	     16.31221256	      0.00000000	      4.75805027	      5.30291993	      0.17517646	      9.07983681	      0.15847305	      9.99080070	     -4.51964221	      0.00000000	     -0.14172407	     -1.12715617	      0.80554734	     -0.26319576	     -1.49911770	      0.85589405	     -0.23283847	     -2.74056751	      0.85589405	     -0.16197643	     -2.74056751	      0.70485392	     -0.13160497	     -2.29849686	      0.65450721	     -0.08098113	     -1.74596490	      0.60416050	     -1.01232082	    -12.75061601	      4.48021263	      0.00000000	      0.00000000	     12.95911096	      5.74114873	     -5.96311064	     99.44088981	   -115.80634053	     96.80006050	     17.89843466	      7.04943740	    -16.18620086	     12.12471114	   -137.79106626	    -77.82582823	    -12.89535431	      9.60359203	     50.82383369	     -9.79596020	     -3.57857762
      2.63333333	     -8.25216074	     -7.60552312	     83.86442785	      0.21681937	      0.89326560	      0.60018352	      3.87213459	     -9.20914814	    -10.42854619	      7.21361441	      0.12590132	     20.30617663	     15.76482444	      0.00000000	      4.72738795	      5.45197996	     -0.40256257	      8.99656014	      0.15701960	      9.65388223	     -4.78773784	      0.00000000	     -0.11424985	     -1.18212245	      0.98999245	     -0.21217339	     -1.57222286	      1.05186697	     -0.18770107	     -2.87421253	      1.05186697	     -0.13057615	     -2.87421253	      0.86624339	     -0.10609241	     -2.41058410	      0.80436886	     -0.06528236	     -1.83110768	      0.74249433	     -0.81607522	    -13.37240559	      5.50604099	      0.00000000	      0.00000000	     13.16050404	      5.55898558	     -8.08695348	    101.86566187	   -115.40635519	     94.66947462	     17.88152860	      5.65225680	    -15.56501646	     10.97389376	   -142.97511187	    -79.14158236	     -8.44653416	      9.82605183	     55.89313411	     -9.96976656	     -0.52035177
      2.65000000	     -8.13549075	     -7.59035458	     83.69173324	      0.21724827	      0.89378811	      0.60047473	      3.96598434	     -9.05550315	     -9.75686055	      7.19143004	      0.12551413	     20.23143775	     15.23990902	      0.00000000	      4.79123574	      5.27895069	     -0.86383860	      9.13216464	      0.15938634	      9.64978542	     -4.69505718	      0.00000000	     -0.08111926	     -1.17576476	      1.13463799	     -0.15064658	     -1.56376713	      1.20555286	     -0.13327084	     -2.85875444	      1.20555286	     -0.09271121	     -2.85875444	      0.99280824	     -0.07532735	     -2.39761950	      0.92189336	     -0.04635155	     -1.82125961	      0.85097849	     -0.57942679	    -13.30048612	      6.31051608	      0.00000000	      0.00000000	     13.07913600	      5.72973943	     -9.28187709	    104.79538830	   -115.43226511	     88.24740229	     18.53412674	      5.00848346	    -15.57999333	     10.40169505	   -148.32678231	    -81.20614908	     -3.29963130	     10.35153711	     59.96763400	     -8.27083191	      4.26917306
      2.66666667	     -8.11602511	     -7.52543967	     83.49041091	      0.21770119	      0.89430003	      0.60085063	      4.05827096	     -9.02763143	     -9.18738858	      7.24259246	      0.12640708	     20.20687043	     14.83320915	      0.00000000	      4.82115474	      5.21100875	     -1.30179631	      9.27198093	      0.16182660	      9.57507050	     -4.66340273	      0.00000000	     -0.05674769	     -1.18427944	      1.22930029	     -0.10538614	     -1.57509165	      1.30613156	     -0.09323079	     -2.87945703	      1.30613156	     -0.06485694	     -2.87945703	      1.07563775	     -0.05269591	     -2.41498263	      0.99880649	     -0.03242563	     -1.83444885	      0.92197522	     -0.40534311	    -13.39680586	      6.83699943	      0.00000000	      0.00000000	     12.94954418	      6.23043974	    -10.17975160	    109.32835861	   -115.08046902	     81.01150901	     18.85852943	      4.39895970	    -14.81789745	      9.84772714	   -151.35111562	    -82.45147927	      0.72755972	     11.29670273	     61.16096321	     -8.27972437	      9.01427157
      2.68333333	     -8.23142994	     -7.49299635	     83.23619340	      0.21837146	      0.89462688	      0.60119119	      4.24509983	     -9.14324905	     -8.78893128	      7.39915558	      0.12913963	     20.27664011	     14.72154415	      0.00000000	      4.87136687	      5.28210290	     -1.60950986	      9.35657454	      0.16330303	      9.39097338	     -4.88626806	      0.00000000	     -0.03190933	     -1.21478068	      1.31003225	     -0.05925882	     -1.61565830	      1.39190926	     -0.05242384	     -2.95361774	      1.39190926	     -0.03646918	     -2.95361774	      1.14627822	     -0.02963101	     -2.47718076	      1.06440120	     -0.01823299	     -1.88169527	      0.98252419	     -0.22792517	    -13.74184198	      7.28600636	      0.00000000	      0.00000000	     12.91174472	      6.93391867	    -11.16757198	    112.39481043	   -114.89722170	     78.30466777	     18.92488303	      3.47144360	    -13.47345830	      9.39850630	   -152.59807567	    -82.97668385	      2.64656749	     12.13952844	     61.80783696	     -9.22010607	     13.12799291
      2.70000000	     -8.12122151	     -7.42297442	     83.09586016	      0.21862532	      0.89485648	      0.60147087	      4.31107837	     -9.03646902	     -8.35752486	      7.53173234	      0.13145353	     20.26490764	     14.40144804	      0.00000000	      4.84552522	      5.16966956	     -1.46834057	      9.44662764	      0.16487476	      9.33229460	     -5.42487791	      0.00000000	     -0.02671596	     -1.20749633	      1.36420312	     -0.04961420	     -1.60597012	      1.44946581	     -0.04389165	     -2.93590657	      1.44946581	     -0.03053367	     -2.93590657	      1.19367773	     -0.02480844	     -2.46232651	      1.10841503	     -0.01526550	     -1.87041181	      1.02315234	     -0.19082941	    -13.65943997	      7.58728848	      0.00000000	      0.00000000	     12.81094284	      7.44480633	    -11.51000255	    115.92586905	   -114.47962940	     73.01412455	     18.79934236	      4.21421604	    -12.22802422	      9.87598612	   -151.84115377	    -83.20198563	      4.17323617	     12.62229483	     59.85174977	    -10.99568288	     15.03472811
      2.71666667	     -8.12185721	     -7.41900354	     83.20939153	      0.21821606	      0.89481507	      0.60104571	      4.28213848	     -9.08339732	     -8.36301896	      7.54804705	      0.13173827	     20.28285826	     14.39244539	      0.00000000	      4.82327405	      5.19417447	     -1.45616957	      9.45680925	      0.16505246	      9.37312419	     -5.43156581	      0.00000000	     -0.01562485	     -1.20302519	      1.38805839	     -0.02901691	     -1.60002351	      1.47481204	     -0.02567007	     -2.92503546	      1.47481204	     -0.01785764	     -2.92503546	      1.21455109	     -0.01450924	     -2.45320898	      1.12779744	     -0.00892804	     -1.86348603	      1.04104379	     -0.11160676	    -13.60886160	      7.71996433	      0.00000000	      0.00000000	     12.82100935	      7.46002446	    -11.52976305	    116.04431791	   -114.53813291	     73.08357977	     18.77494711	      4.22628517	    -12.22161224	      9.92259130	   -151.76723049	    -83.51117177	      4.12177956	     12.61068678	     59.82379222	    -11.02658434	     15.03072204
      2.73333333	     -8.13195277	     -7.54971190	     82.56455170	      0.21945578	      0.89452996	      0.60158914	      4.87355863	     -9.07149016	     -8.05860713	      8.12024042	      0.14172493	     20.38669414	     14.73041707	      0.00000000	      5.01968884	      5.13402097	     -1.35133511	      9.50103574	      0.16582436	      9.58640465	     -6.21341786	      0.00000000	     -0.01411300	     -1.21532790	      1.48522601	     -0.02620924	     -1.61638611	      1.57805263	     -0.02318624	     -2.95494826	      1.57805263	     -0.01612974	     -2.95494826	      1.29957276	     -0.01310533	     -2.47829665	      1.20674613	     -0.00806417	     -1.88254292	      1.11391950	     -0.10080772	    -13.74803228	      8.26038148	      0.00000000	      0.00000000	     13.36822970	      7.79366705	    -12.05430467	    114.69980057	   -115.10294555	     78.35572333	     18.95086338	      6.89176072	    -10.14465929	     10.42573350	   -148.28771232	    -82.45214481	      1.35611117	     12.43887028	     55.44467669	    -14.91064519	     14.19664193
